# xmcd CD database file
#
# Track frame offsets:
#	150
#	11525
#	30125
#	45295
#	56930
#	71265
#	80565
#	96847
#	111727
#	131090
#	140650
#	157667
#	168972
#	179870
#	193742
#	227227
#
# Disc length: 3176 seconds
#
# Revision: 2
# Processed by: cddbd v1.5.2PL0 Copyright (c) Steve Scherf et al.
# Submitted via: CDex 1.70beta2
#
DISCID=d90c6610
DTITLE=Paul Kelly and the Coloured Girls - Under the Sun
DYEAR=1987
DGENRE=Rock
TTITLE0=Dumb Things
TTITLE1=Same Old Walk
TTITLE2=Big Heart
TTITLE3=Don't Stand So Close To The Window
TTITLE4=Forty Miles To Saturday Night
TTITLE5=I Don't Remember A Thing
TTITLE6=Know Your Friends
TTITLE7=To Her Door
TTITLE8=Under The Sun
TTITLE9=Untouchable
TTITLE10=Desdemona
TTITLE11=Happy Slave
TTITLE12=Crosstown
TTITLE13=Bicentennial
TTITLE14=Bradman
TTITLE15=Pastures Of Plenty
EXTD=YEAR: 1987
EXTT0=
EXTT1=
EXTT2=
EXTT3=
EXTT4=
EXTT5=
EXTT6=
EXTT7=
EXTT8=
EXTT9=
EXTT10=
EXTT11=
EXTT12=
EXTT13=
EXTT14=
EXTT15=
PLAYORDER=
